<svg xmlns="http://www.w3.org/2000/svg" xmlns:xlink="http://www.w3.org/1999/xlink" width="61.082" height="64.03" viewBox="0 0 61.082 64.03"><defs><style>.a{fill:none;}.b{fill:#fff;}.c{clip-path:url(#a);}</style><clipPath id="a"><rect class="a" width="61.082" height="64.03"/></clipPath></defs><path class="b" d="M178.347,136l-26.158,13.4V122.179Z" transform="translate(-130.127 -104.468)"/><g class="c"><path class="b" d="M61.082,42.51a32.194,32.194,0,0,1-7.86,12.338,29.659,29.659,0,0,1-22.779,9.163,29.729,29.729,0,0,1-21.6-9.646A31.151,31.151,0,0,1,0,32.175,31.452,31.452,0,0,1,9.54,9.183,29.5,29.5,0,0,1,32.265.018,30.21,30.21,0,0,1,53.918,9.827a31.948,31.948,0,0,1,7.065,11.388H52.194a25.02,25.02,0,0,0-4.456-6.373A21.307,21.307,0,0,0,31.784,7.95a22.216,22.216,0,0,0-16.656,6.837A23.324,23.324,0,0,0,8.145,31.531,23.7,23.7,0,0,0,14.486,48.49a21.8,21.8,0,0,0,16.008,7.589,21.225,21.225,0,0,0,17.244-7,25.929,25.929,0,0,0,4.574-6.571ZM.652,62.62l.022-.161v.161Z" transform="translate(0 0)"/></g></svg>